<?xml version="1.0" encoding="UTF-8" standalone="no"?>
<!-- Created with Inkscape (http://www.inkscape.org/) -->

<svg
   width="151.25499mm"
   height="123.76701mm"
   viewBox="0 0 151.25499 123.76701"
   version="1.1"
   id="svg842"
   inkscape:version="1.1.2 (b8e25be833, 2022-02-05)"
   sodipodi:docname="drawing.svg"
   xmlns:inkscape="http://www.inkscape.org/namespaces/inkscape"
   xmlns:sodipodi="http://sodipodi.sourceforge.net/DTD/sodipodi-0.dtd"
   xmlns="http://www.w3.org/2000/svg"
   xmlns:svg="http://www.w3.org/2000/svg">
  <sodipodi:namedview
     id="namedview844"
     pagecolor="#ffffff"
     bordercolor="#666666"
     borderopacity="1.0"
     inkscape:pageshadow="2"
     inkscape:pageopacity="0.0"
     inkscape:pagecheckerboard="0"
     inkscape:document-units="px"
     showgrid="false"
     showborder="false"
     inkscape:zoom="0.36346856"
     inkscape:cx="218.72593"
     inkscape:cy="272.37569"
     inkscape:current-layer="layer1"
     fit-margin-top="0"
     fit-margin-left="0"
     fit-margin-right="0"
     fit-margin-bottom="0" />
  <defs
     id="defs839" />
  <g
     inkscape:label="Layer 1"
     inkscape:groupmode="layer"
     id="layer1"
     transform="translate(-52.281088,-96.650122)">
    <path
       style="fill:#000000;stroke-width:1"
       id="path915"
       d="" />
    <path
       id="path2246"
       style="fill:#fe4656;stroke:none;stroke-width:1"
       d="m 53.520802,96.650444 c -0.136925,0.0036 -0.267798,0.03683 -0.390673,0.104386 -1.490271,0.819433 -0.565341,7.87302 -0.565341,9.46299 v 28.92794 14.46372 c 0,2.31599 -0.444913,5.17419 0.228926,7.40834 1.390232,4.60903 6.8093,9.32692 9.790101,13.05294 7.55582,9.44529 15.053937,18.93928 22.686986,28.32282 3.95958,4.86763 7.814914,9.82358 11.744503,14.7159 1.684872,2.09797 3.542066,5.4066 5.997046,6.63991 1.83973,0.92428 4.69514,0.41599 6.70244,0.41599 h 14.81666 19.75539 c 1.57621,0 5.92215,0.76083 7.12618,-0.36277 1.34726,-1.2573 -3.07267,-5.6863 -3.88194,-6.69313 -5.37916,-6.69149 -10.81004,-13.34029 -16.09359,-20.10833 -19.45887,-24.92551 -39.807304,-49.15712 -59.266664,-74.08333 -4.5417,-5.81766 -9.31649,-11.45294 -13.838431,-17.28577 -0.713846,-0.92078 -3.195873,-5.023701 -4.811593,-4.981606 z m 148.722698,0.01395 c -0.12345,-0.0028 -0.26139,0.02559 -0.41444,0.09043 -1.60549,0.680262 -2.92817,3.214727 -4.00802,4.524276 -3.24838,3.93876 -6.30741,8.03398 -9.52862,11.99461 -12.16872,14.96272 -24.12579,30.096 -36.1735,45.15538 l -11.00708,13.75833 c -0.91546,1.14406 -3.70724,3.58392 -3.46594,5.17953 0.16298,1.07633 2.01795,0.81611 2.76055,0.81752 h 8.46667 26.10538 c 3.24132,0 8.27047,0.9483 11.28355,-0.30231 3.20922,-1.33174 6.06737,-6.55886 8.18968,-9.22269 2.62643,-3.296 7.14662,-7.26492 8.50129,-11.28872 1.14688,-3.40747 0.24805,-8.4118 0.24805,-11.99461 v -25.75242 -17.63923 c 0,-0.87851 0.49922,-5.286879 -0.95757,-5.320092 z" />
  </g>
</svg>
